<mxfile host="app.diagrams.net" modified="2023-07-08T12:44:40.453Z" agent="Mozilla/5.0 (Windows NT 10.0; Win64; x64; rv:109.0) Gecko/20100101 Firefox/115.0" etag="Sxizvjw6Qpo42KsXwzLt" version="21.6.1" type="device">
  <diagram name="Pagina-1" id="1aT6pa6JwWmaBbppNuH8">
    <mxGraphModel dx="2736" dy="2184" grid="1" gridSize="10" guides="1" tooltips="1" connect="1" arrows="1" fold="1" page="1" pageScale="1" pageWidth="827" pageHeight="1169" math="0" shadow="0">
      <root>
        <mxCell id="0" />
        <mxCell id="1" parent="0" />
        <mxCell id="DugPK2IkK0LUQM6lhoBh-1" value="&lt;div&gt;&lt;font style=&quot;font-size: 25px;&quot;&gt;Detection&lt;/font&gt;&lt;/div&gt;&lt;div&gt;&lt;font style=&quot;font-size: 16px;&quot;&gt;Id&lt;/font&gt;&lt;/div&gt;&lt;div&gt;&lt;div style=&quot;font-size: 15px;&quot;&gt;&lt;font style=&quot;font-size: 15px;&quot;&gt;speed&lt;/font&gt;&lt;/div&gt;&lt;div style=&quot;font-size: 15px;&quot;&gt;&lt;font style=&quot;font-size: 15px;&quot;&gt;timestamp&lt;/font&gt;&lt;/div&gt;&lt;font style=&quot;font-size: 15px;&quot;&gt;n_vehicles&lt;/font&gt;&lt;/div&gt;" style="ellipse;whiteSpace=wrap;html=1;aspect=fixed;fillColor=#0050ef;strokeColor=#001DBC;fontColor=#ffffff;" parent="1" vertex="1">
          <mxGeometry x="-270" y="350" width="150" height="150" as="geometry" />
        </mxCell>
        <mxCell id="DugPK2IkK0LUQM6lhoBh-2" value="&lt;div&gt;&lt;font style=&quot;font-size: 25px;&quot;&gt;Street&lt;/font&gt;&lt;/div&gt;&lt;font style=&quot;font-size: 15px;&quot;&gt;id_street&lt;/font&gt;" style="ellipse;whiteSpace=wrap;html=1;aspect=fixed;fillColor=#a0522d;fontColor=#ffffff;strokeColor=#6D1F00;" parent="1" vertex="1">
          <mxGeometry x="-40" y="150" width="130" height="130" as="geometry" />
        </mxCell>
        <mxCell id="DugPK2IkK0LUQM6lhoBh-3" value="" style="endArrow=classic;html=1;rounded=0;exitX=1;exitY=0;exitDx=0;exitDy=0;entryX=0;entryY=1;entryDx=0;entryDy=0;" parent="1" source="DugPK2IkK0LUQM6lhoBh-1" target="DugPK2IkK0LUQM6lhoBh-2" edge="1">
          <mxGeometry width="50" height="50" relative="1" as="geometry">
            <mxPoint x="50" y="370" as="sourcePoint" />
            <mxPoint x="100" y="320" as="targetPoint" />
          </mxGeometry>
        </mxCell>
        <mxCell id="DugPK2IkK0LUQM6lhoBh-4" value="&lt;div&gt;&lt;font style=&quot;font-size: 25px;&quot;&gt;detected_at&lt;/font&gt;&lt;/div&gt;" style="edgeLabel;html=1;align=center;verticalAlign=middle;resizable=0;points=[];" parent="DugPK2IkK0LUQM6lhoBh-3" vertex="1" connectable="0">
          <mxGeometry x="0.1172" y="-4" relative="1" as="geometry">
            <mxPoint x="36" y="48" as="offset" />
          </mxGeometry>
        </mxCell>
        <mxCell id="DugPK2IkK0LUQM6lhoBh-5" value="&lt;font style=&quot;font-size: 25px;&quot;&gt;Anderlecht&lt;/font&gt;" style="ellipse;whiteSpace=wrap;html=1;aspect=fixed;fillColor=#6d8764;fontColor=#ffffff;strokeColor=#3A5431;" parent="1" vertex="1">
          <mxGeometry x="290" y="30" width="140" height="140" as="geometry" />
        </mxCell>
        <mxCell id="DugPK2IkK0LUQM6lhoBh-6" value="" style="endArrow=classic;html=1;rounded=0;exitX=1;exitY=0;exitDx=0;exitDy=0;entryX=0;entryY=0.5;entryDx=0;entryDy=0;" parent="1" source="DugPK2IkK0LUQM6lhoBh-2" target="DugPK2IkK0LUQM6lhoBh-5" edge="1">
          <mxGeometry width="50" height="50" relative="1" as="geometry">
            <mxPoint x="340" y="340" as="sourcePoint" />
            <mxPoint x="390" y="290" as="targetPoint" />
          </mxGeometry>
        </mxCell>
        <mxCell id="DugPK2IkK0LUQM6lhoBh-7" value="&lt;font style=&quot;font-size: 25px;&quot;&gt;is_in&lt;/font&gt;" style="edgeLabel;html=1;align=center;verticalAlign=middle;resizable=0;points=[];" parent="DugPK2IkK0LUQM6lhoBh-6" vertex="1" connectable="0">
          <mxGeometry x="-0.093" y="-3" relative="1" as="geometry">
            <mxPoint x="-11" y="-51" as="offset" />
          </mxGeometry>
        </mxCell>
        <mxCell id="DugPK2IkK0LUQM6lhoBh-8" value="&lt;div&gt;&lt;font style=&quot;font-size: 25px;&quot;&gt;Detection&lt;/font&gt;&lt;/div&gt;&lt;div&gt;&lt;font style=&quot;font-size: 16px;&quot;&gt;Id&lt;/font&gt;&lt;/div&gt;&lt;div&gt;&lt;div style=&quot;font-size: 15px;&quot;&gt;&lt;font style=&quot;font-size: 15px;&quot;&gt;speed&lt;/font&gt;&lt;/div&gt;&lt;div style=&quot;font-size: 15px;&quot;&gt;&lt;font style=&quot;font-size: 15px;&quot;&gt;timestamp&lt;/font&gt;&lt;/div&gt;&lt;font style=&quot;font-size: 15px;&quot;&gt;n_vehicles&lt;/font&gt;&lt;/div&gt;" style="ellipse;whiteSpace=wrap;html=1;aspect=fixed;fillColor=#0050ef;strokeColor=#001DBC;fontColor=#ffffff;" parent="1" vertex="1">
          <mxGeometry x="-60" y="480" width="150" height="150" as="geometry" />
        </mxCell>
        <mxCell id="DugPK2IkK0LUQM6lhoBh-9" value="&lt;div&gt;&lt;font style=&quot;font-size: 25px;&quot;&gt;Street&lt;/font&gt;&lt;/div&gt;&lt;font style=&quot;font-size: 15px;&quot;&gt;id_street&lt;/font&gt;" style="ellipse;whiteSpace=wrap;html=1;aspect=fixed;fillColor=#a0522d;fontColor=#ffffff;strokeColor=#6D1F00;" parent="1" vertex="1">
          <mxGeometry x="160" y="280" width="130" height="130" as="geometry" />
        </mxCell>
        <mxCell id="DugPK2IkK0LUQM6lhoBh-10" value="" style="endArrow=classic;html=1;rounded=0;exitX=1;exitY=0;exitDx=0;exitDy=0;entryX=0;entryY=1;entryDx=0;entryDy=0;" parent="1" source="DugPK2IkK0LUQM6lhoBh-8" target="DugPK2IkK0LUQM6lhoBh-9" edge="1">
          <mxGeometry width="50" height="50" relative="1" as="geometry">
            <mxPoint x="250" y="500" as="sourcePoint" />
            <mxPoint x="300" y="450" as="targetPoint" />
          </mxGeometry>
        </mxCell>
        <mxCell id="DugPK2IkK0LUQM6lhoBh-11" value="&lt;div&gt;&lt;font style=&quot;font-size: 25px;&quot;&gt;detected_at&lt;/font&gt;&lt;/div&gt;" style="edgeLabel;html=1;align=center;verticalAlign=middle;resizable=0;points=[];" parent="DugPK2IkK0LUQM6lhoBh-10" vertex="1" connectable="0">
          <mxGeometry x="0.1172" y="-4" relative="1" as="geometry">
            <mxPoint x="36" y="48" as="offset" />
          </mxGeometry>
        </mxCell>
        <mxCell id="DugPK2IkK0LUQM6lhoBh-12" value="" style="endArrow=classic;html=1;rounded=0;exitX=1;exitY=0;exitDx=0;exitDy=0;entryX=0.5;entryY=1;entryDx=0;entryDy=0;" parent="1" source="DugPK2IkK0LUQM6lhoBh-9" target="DugPK2IkK0LUQM6lhoBh-5" edge="1">
          <mxGeometry width="50" height="50" relative="1" as="geometry">
            <mxPoint x="540" y="470" as="sourcePoint" />
            <mxPoint x="490" y="230" as="targetPoint" />
          </mxGeometry>
        </mxCell>
        <mxCell id="DugPK2IkK0LUQM6lhoBh-13" value="&lt;font style=&quot;font-size: 25px;&quot;&gt;is_in&lt;/font&gt;" style="edgeLabel;html=1;align=center;verticalAlign=middle;resizable=0;points=[];" parent="DugPK2IkK0LUQM6lhoBh-12" vertex="1" connectable="0">
          <mxGeometry x="-0.093" y="-3" relative="1" as="geometry">
            <mxPoint x="-11" y="-51" as="offset" />
          </mxGeometry>
        </mxCell>
        <mxCell id="DugPK2IkK0LUQM6lhoBh-14" value="&lt;h1 id=&quot;Bruxelles-Streets&quot;&gt;&lt;span style=&quot;font-weight: normal;&quot;&gt;Bruxells&lt;/span&gt;&lt;br&gt;&lt;/h1&gt;" style="ellipse;whiteSpace=wrap;html=1;aspect=fixed;fillColor=#6d8764;fontColor=#ffffff;strokeColor=#3A5431;" parent="1" vertex="1">
          <mxGeometry x="710" y="30" width="140" height="140" as="geometry" />
        </mxCell>
        <mxCell id="DugPK2IkK0LUQM6lhoBh-15" value="" style="endArrow=classic;html=1;rounded=0;entryX=0;entryY=0.5;entryDx=0;entryDy=0;exitX=1;exitY=0.5;exitDx=0;exitDy=0;" parent="1" source="DugPK2IkK0LUQM6lhoBh-5" target="DugPK2IkK0LUQM6lhoBh-14" edge="1">
          <mxGeometry width="50" height="50" relative="1" as="geometry">
            <mxPoint x="490" y="300" as="sourcePoint" />
            <mxPoint x="540" y="250" as="targetPoint" />
          </mxGeometry>
        </mxCell>
        <mxCell id="DugPK2IkK0LUQM6lhoBh-16" value="&lt;font style=&quot;font-size: 25px;&quot;&gt;common_of&lt;/font&gt;" style="edgeLabel;html=1;align=center;verticalAlign=middle;resizable=0;points=[];" parent="DugPK2IkK0LUQM6lhoBh-15" vertex="1" connectable="0">
          <mxGeometry x="-0.6189" y="-1" relative="1" as="geometry">
            <mxPoint x="58" y="-51" as="offset" />
          </mxGeometry>
        </mxCell>
        <mxCell id="DugPK2IkK0LUQM6lhoBh-17" value="&lt;div&gt;&lt;font style=&quot;font-size: 25px;&quot;&gt;Detection&lt;/font&gt;&lt;/div&gt;&lt;div&gt;&lt;font style=&quot;font-size: 16px;&quot;&gt;Id&lt;/font&gt;&lt;/div&gt;&lt;div&gt;&lt;div style=&quot;font-size: 15px;&quot;&gt;&lt;font style=&quot;font-size: 15px;&quot;&gt;speed&lt;/font&gt;&lt;/div&gt;&lt;div style=&quot;font-size: 15px;&quot;&gt;&lt;font style=&quot;font-size: 15px;&quot;&gt;timestamp&lt;/font&gt;&lt;/div&gt;&lt;font style=&quot;font-size: 15px;&quot;&gt;n_vehicles&lt;/font&gt;&lt;/div&gt;" style="ellipse;whiteSpace=wrap;html=1;aspect=fixed;fillColor=#0050ef;strokeColor=#001DBC;fontColor=#ffffff;" parent="1" vertex="1">
          <mxGeometry x="290" y="580" width="150" height="150" as="geometry" />
        </mxCell>
        <mxCell id="DugPK2IkK0LUQM6lhoBh-18" value="&lt;div&gt;&lt;font style=&quot;font-size: 25px;&quot;&gt;Street&lt;/font&gt;&lt;/div&gt;&lt;font style=&quot;font-size: 15px;&quot;&gt;id_street&lt;/font&gt;" style="ellipse;whiteSpace=wrap;html=1;aspect=fixed;fillColor=#a0522d;fontColor=#ffffff;strokeColor=#6D1F00;" parent="1" vertex="1">
          <mxGeometry x="510" y="380" width="130" height="130" as="geometry" />
        </mxCell>
        <mxCell id="DugPK2IkK0LUQM6lhoBh-19" value="" style="endArrow=classic;html=1;rounded=0;exitX=1;exitY=0;exitDx=0;exitDy=0;entryX=0;entryY=1;entryDx=0;entryDy=0;" parent="1" source="DugPK2IkK0LUQM6lhoBh-17" target="DugPK2IkK0LUQM6lhoBh-18" edge="1">
          <mxGeometry width="50" height="50" relative="1" as="geometry">
            <mxPoint x="600" y="600" as="sourcePoint" />
            <mxPoint x="650" y="550" as="targetPoint" />
          </mxGeometry>
        </mxCell>
        <mxCell id="DugPK2IkK0LUQM6lhoBh-20" value="&lt;div&gt;&lt;font style=&quot;font-size: 25px;&quot;&gt;detected_at&lt;/font&gt;&lt;/div&gt;" style="edgeLabel;html=1;align=center;verticalAlign=middle;resizable=0;points=[];" parent="DugPK2IkK0LUQM6lhoBh-19" vertex="1" connectable="0">
          <mxGeometry x="0.1172" y="-4" relative="1" as="geometry">
            <mxPoint x="36" y="48" as="offset" />
          </mxGeometry>
        </mxCell>
        <mxCell id="DugPK2IkK0LUQM6lhoBh-22" value="" style="endArrow=classic;html=1;rounded=0;exitX=1;exitY=0;exitDx=0;exitDy=0;entryX=0.5;entryY=1;entryDx=0;entryDy=0;" parent="1" source="DugPK2IkK0LUQM6lhoBh-18" target="DugPK2IkK0LUQM6lhoBh-14" edge="1">
          <mxGeometry width="50" height="50" relative="1" as="geometry">
            <mxPoint x="890" y="570" as="sourcePoint" />
            <mxPoint x="839.9999999999995" y="330" as="targetPoint" />
          </mxGeometry>
        </mxCell>
        <mxCell id="DugPK2IkK0LUQM6lhoBh-23" value="&lt;font style=&quot;font-size: 25px;&quot;&gt;is_in&lt;/font&gt;" style="edgeLabel;html=1;align=center;verticalAlign=middle;resizable=0;points=[];" parent="DugPK2IkK0LUQM6lhoBh-22" vertex="1" connectable="0">
          <mxGeometry x="-0.093" y="-3" relative="1" as="geometry">
            <mxPoint x="-11" y="-51" as="offset" />
          </mxGeometry>
        </mxCell>
        <mxCell id="DugPK2IkK0LUQM6lhoBh-24" value="&lt;div&gt;&lt;font style=&quot;font-size: 25px;&quot;&gt;Detection&lt;/font&gt;&lt;/div&gt;&lt;div&gt;&lt;font style=&quot;font-size: 16px;&quot;&gt;Id&lt;/font&gt;&lt;/div&gt;&lt;div&gt;&lt;div style=&quot;font-size: 15px;&quot;&gt;&lt;font style=&quot;font-size: 15px;&quot;&gt;speed&lt;/font&gt;&lt;/div&gt;&lt;div style=&quot;font-size: 15px;&quot;&gt;&lt;font style=&quot;font-size: 15px;&quot;&gt;timestamp&lt;/font&gt;&lt;/div&gt;&lt;font style=&quot;font-size: 15px;&quot;&gt;n_vehicles&lt;/font&gt;&lt;/div&gt;" style="ellipse;whiteSpace=wrap;html=1;aspect=fixed;fillColor=#0050ef;strokeColor=#001DBC;fontColor=#ffffff;" parent="1" vertex="1">
          <mxGeometry x="770" y="690" width="150" height="150" as="geometry" />
        </mxCell>
        <mxCell id="DugPK2IkK0LUQM6lhoBh-25" value="&lt;div&gt;&lt;font style=&quot;font-size: 25px;&quot;&gt;Street&lt;/font&gt;&lt;/div&gt;&lt;font style=&quot;font-size: 15px;&quot;&gt;id_street&lt;/font&gt;" style="ellipse;whiteSpace=wrap;html=1;aspect=fixed;fillColor=#a0522d;fontColor=#ffffff;strokeColor=#6D1F00;" parent="1" vertex="1">
          <mxGeometry x="870" y="400" width="130" height="130" as="geometry" />
        </mxCell>
        <mxCell id="DugPK2IkK0LUQM6lhoBh-26" value="" style="endArrow=classic;html=1;rounded=0;exitX=1;exitY=0;exitDx=0;exitDy=0;entryX=0.5;entryY=1;entryDx=0;entryDy=0;" parent="1" source="DugPK2IkK0LUQM6lhoBh-24" target="DugPK2IkK0LUQM6lhoBh-25" edge="1">
          <mxGeometry width="50" height="50" relative="1" as="geometry">
            <mxPoint x="960" y="620" as="sourcePoint" />
            <mxPoint x="1010" y="570" as="targetPoint" />
          </mxGeometry>
        </mxCell>
        <mxCell id="DugPK2IkK0LUQM6lhoBh-27" value="&lt;div&gt;&lt;font style=&quot;font-size: 25px;&quot;&gt;detected_at&lt;/font&gt;&lt;/div&gt;" style="edgeLabel;html=1;align=center;verticalAlign=middle;resizable=0;points=[];" parent="DugPK2IkK0LUQM6lhoBh-26" vertex="1" connectable="0">
          <mxGeometry x="0.1172" y="-4" relative="1" as="geometry">
            <mxPoint x="36" y="48" as="offset" />
          </mxGeometry>
        </mxCell>
        <mxCell id="DugPK2IkK0LUQM6lhoBh-28" value="" style="endArrow=classic;html=1;rounded=0;exitX=0.5;exitY=0;exitDx=0;exitDy=0;entryX=0.5;entryY=1;entryDx=0;entryDy=0;" parent="1" source="DugPK2IkK0LUQM6lhoBh-25" target="DugPK2IkK0LUQM6lhoBh-14" edge="1">
          <mxGeometry width="50" height="50" relative="1" as="geometry">
            <mxPoint x="1250" y="590" as="sourcePoint" />
            <mxPoint x="1140" y="190" as="targetPoint" />
          </mxGeometry>
        </mxCell>
        <mxCell id="DugPK2IkK0LUQM6lhoBh-29" value="&lt;font style=&quot;font-size: 25px;&quot;&gt;is_in&lt;/font&gt;" style="edgeLabel;html=1;align=center;verticalAlign=middle;resizable=0;points=[];" parent="DugPK2IkK0LUQM6lhoBh-28" vertex="1" connectable="0">
          <mxGeometry x="-0.093" y="-3" relative="1" as="geometry">
            <mxPoint x="-11" y="-51" as="offset" />
          </mxGeometry>
        </mxCell>
        <mxCell id="DugPK2IkK0LUQM6lhoBh-30" value="&lt;font style=&quot;font-size: 25px;&quot;&gt;Belgium&lt;/font&gt;" style="ellipse;whiteSpace=wrap;html=1;aspect=fixed;fillColor=#6d8764;fontColor=#ffffff;strokeColor=#3A5431;" parent="1" vertex="1">
          <mxGeometry x="990" y="-130" width="140" height="140" as="geometry" />
        </mxCell>
        <mxCell id="DugPK2IkK0LUQM6lhoBh-31" value="" style="endArrow=classic;html=1;rounded=0;entryX=0;entryY=1;entryDx=0;entryDy=0;exitX=1;exitY=0;exitDx=0;exitDy=0;" parent="1" source="DugPK2IkK0LUQM6lhoBh-14" target="DugPK2IkK0LUQM6lhoBh-30" edge="1">
          <mxGeometry width="50" height="50" relative="1" as="geometry">
            <mxPoint x="1020" y="99.17" as="sourcePoint" />
            <mxPoint x="1300" y="99.17" as="targetPoint" />
          </mxGeometry>
        </mxCell>
        <mxCell id="DugPK2IkK0LUQM6lhoBh-32" value="&lt;font style=&quot;font-size: 25px;&quot;&gt;region_of&lt;/font&gt;" style="edgeLabel;html=1;align=center;verticalAlign=middle;resizable=0;points=[];" parent="DugPK2IkK0LUQM6lhoBh-31" vertex="1" connectable="0">
          <mxGeometry x="-0.6189" y="-1" relative="1" as="geometry">
            <mxPoint x="5" y="-70" as="offset" />
          </mxGeometry>
        </mxCell>
        <mxCell id="DugPK2IkK0LUQM6lhoBh-33" value="&lt;div&gt;&lt;font style=&quot;font-size: 25px;&quot;&gt;Detection&lt;/font&gt;&lt;/div&gt;&lt;div&gt;&lt;font style=&quot;font-size: 16px;&quot;&gt;Id&lt;/font&gt;&lt;/div&gt;&lt;div&gt;&lt;div style=&quot;font-size: 15px;&quot;&gt;&lt;font style=&quot;font-size: 15px;&quot;&gt;speed&lt;/font&gt;&lt;/div&gt;&lt;div style=&quot;font-size: 15px;&quot;&gt;&lt;font style=&quot;font-size: 15px;&quot;&gt;timestamp&lt;/font&gt;&lt;/div&gt;&lt;font style=&quot;font-size: 15px;&quot;&gt;n_vehicles&lt;/font&gt;&lt;/div&gt;" style="ellipse;whiteSpace=wrap;html=1;aspect=fixed;fillColor=#0050ef;strokeColor=#001DBC;fontColor=#ffffff;" parent="1" vertex="1">
          <mxGeometry x="800" y="-547" width="157" height="157" as="geometry" />
        </mxCell>
        <mxCell id="DugPK2IkK0LUQM6lhoBh-34" value="&lt;div&gt;&lt;font style=&quot;font-size: 25px;&quot;&gt;Street&lt;/font&gt;&lt;/div&gt;&lt;font style=&quot;font-size: 15px;&quot;&gt;id_street&lt;/font&gt;" style="ellipse;whiteSpace=wrap;html=1;aspect=fixed;fillColor=#a0522d;fontColor=#ffffff;strokeColor=#6D1F00;" parent="1" vertex="1">
          <mxGeometry x="1260" y="-430" width="130" height="130" as="geometry" />
        </mxCell>
        <mxCell id="DugPK2IkK0LUQM6lhoBh-35" value="" style="endArrow=classic;html=1;rounded=0;exitX=1;exitY=0.5;exitDx=0;exitDy=0;entryX=0;entryY=0.5;entryDx=0;entryDy=0;" parent="1" source="DugPK2IkK0LUQM6lhoBh-33" target="DugPK2IkK0LUQM6lhoBh-34" edge="1">
          <mxGeometry width="50" height="50" relative="1" as="geometry">
            <mxPoint x="1620" y="270" as="sourcePoint" />
            <mxPoint x="1670" y="220" as="targetPoint" />
          </mxGeometry>
        </mxCell>
        <mxCell id="DugPK2IkK0LUQM6lhoBh-36" value="&lt;div&gt;&lt;font style=&quot;font-size: 25px;&quot;&gt;detected_at&lt;/font&gt;&lt;/div&gt;" style="edgeLabel;html=1;align=center;verticalAlign=middle;resizable=0;points=[];" parent="DugPK2IkK0LUQM6lhoBh-35" vertex="1" connectable="0">
          <mxGeometry x="0.1172" y="-4" relative="1" as="geometry">
            <mxPoint x="36" y="48" as="offset" />
          </mxGeometry>
        </mxCell>
        <mxCell id="DugPK2IkK0LUQM6lhoBh-37" value="" style="endArrow=classic;html=1;rounded=0;exitX=0.5;exitY=1;exitDx=0;exitDy=0;entryX=1;entryY=0;entryDx=0;entryDy=0;" parent="1" source="DugPK2IkK0LUQM6lhoBh-34" target="DugPK2IkK0LUQM6lhoBh-30" edge="1">
          <mxGeometry width="50" height="50" relative="1" as="geometry">
            <mxPoint x="1910" y="240" as="sourcePoint" />
            <mxPoint x="1800" y="-160" as="targetPoint" />
          </mxGeometry>
        </mxCell>
        <mxCell id="DugPK2IkK0LUQM6lhoBh-38" value="&lt;font style=&quot;font-size: 25px;&quot;&gt;is_in&lt;/font&gt;" style="edgeLabel;html=1;align=center;verticalAlign=middle;resizable=0;points=[];" parent="DugPK2IkK0LUQM6lhoBh-37" vertex="1" connectable="0">
          <mxGeometry x="-0.093" y="-3" relative="1" as="geometry">
            <mxPoint x="-11" y="-51" as="offset" />
          </mxGeometry>
        </mxCell>
        <mxCell id="DugPK2IkK0LUQM6lhoBh-39" value="&lt;div&gt;&lt;font style=&quot;font-size: 25px;&quot;&gt;Detection&lt;/font&gt;&lt;/div&gt;&lt;div&gt;&lt;font style=&quot;font-size: 16px;&quot;&gt;Id&lt;/font&gt;&lt;/div&gt;&lt;div&gt;&lt;div style=&quot;font-size: 15px;&quot;&gt;&lt;font style=&quot;font-size: 15px;&quot;&gt;speed&lt;/font&gt;&lt;/div&gt;&lt;div style=&quot;font-size: 15px;&quot;&gt;&lt;font style=&quot;font-size: 15px;&quot;&gt;timestamp&lt;/font&gt;&lt;/div&gt;&lt;font style=&quot;font-size: 15px;&quot;&gt;n_vehicles&lt;/font&gt;&lt;/div&gt;" style="ellipse;whiteSpace=wrap;html=1;aspect=fixed;fillColor=#0050ef;strokeColor=#001DBC;fontColor=#ffffff;" parent="1" vertex="1">
          <mxGeometry x="1800" y="-70" width="160" height="160" as="geometry" />
        </mxCell>
        <mxCell id="DugPK2IkK0LUQM6lhoBh-40" value="&lt;div&gt;&lt;font style=&quot;font-size: 25px;&quot;&gt;Street&lt;/font&gt;&lt;/div&gt;&lt;font style=&quot;font-size: 15px;&quot;&gt;id_street&lt;/font&gt;" style="ellipse;whiteSpace=wrap;html=1;aspect=fixed;fillColor=#a0522d;fontColor=#ffffff;strokeColor=#6D1F00;" parent="1" vertex="1">
          <mxGeometry x="1420" y="-130" width="130" height="130" as="geometry" />
        </mxCell>
        <mxCell id="DugPK2IkK0LUQM6lhoBh-41" value="" style="endArrow=classic;html=1;rounded=0;exitX=0;exitY=0.5;exitDx=0;exitDy=0;entryX=1;entryY=0.5;entryDx=0;entryDy=0;" parent="1" source="DugPK2IkK0LUQM6lhoBh-39" target="DugPK2IkK0LUQM6lhoBh-40" edge="1">
          <mxGeometry width="50" height="50" relative="1" as="geometry">
            <mxPoint x="1980" y="290" as="sourcePoint" />
            <mxPoint x="2030" y="240" as="targetPoint" />
          </mxGeometry>
        </mxCell>
        <mxCell id="DugPK2IkK0LUQM6lhoBh-42" value="&lt;div&gt;&lt;font style=&quot;font-size: 25px;&quot;&gt;detected_at&lt;/font&gt;&lt;/div&gt;" style="edgeLabel;html=1;align=center;verticalAlign=middle;resizable=0;points=[];" parent="DugPK2IkK0LUQM6lhoBh-41" vertex="1" connectable="0">
          <mxGeometry x="0.1172" y="-4" relative="1" as="geometry">
            <mxPoint x="36" y="48" as="offset" />
          </mxGeometry>
        </mxCell>
        <mxCell id="DugPK2IkK0LUQM6lhoBh-43" value="" style="endArrow=classic;html=1;rounded=0;exitX=0;exitY=0.5;exitDx=0;exitDy=0;entryX=1;entryY=0.5;entryDx=0;entryDy=0;" parent="1" source="DugPK2IkK0LUQM6lhoBh-40" target="DugPK2IkK0LUQM6lhoBh-30" edge="1">
          <mxGeometry width="50" height="50" relative="1" as="geometry">
            <mxPoint x="2270" y="260" as="sourcePoint" />
            <mxPoint x="1800" y="-160" as="targetPoint" />
          </mxGeometry>
        </mxCell>
        <mxCell id="DugPK2IkK0LUQM6lhoBh-44" value="&lt;font style=&quot;font-size: 25px;&quot;&gt;is_in&lt;/font&gt;" style="edgeLabel;html=1;align=center;verticalAlign=middle;resizable=0;points=[];" parent="DugPK2IkK0LUQM6lhoBh-43" vertex="1" connectable="0">
          <mxGeometry x="-0.093" y="-3" relative="1" as="geometry">
            <mxPoint x="-11" y="-51" as="offset" />
          </mxGeometry>
        </mxCell>
      </root>
    </mxGraphModel>
  </diagram>
</mxfile>
